<svg width="22" height="20" viewBox="0 0 22 20" fill="none" xmlns="http://www.w3.org/2000/svg">
<path d="M7.66667 2H13.6667C13.85 2 14 2.15 14 2.33333V4H7.33333V2.33333C7.33333 2.15 7.48333 2 7.66667 2ZM5.33333 2.33333V4H2.66667C1.19583 4 0 5.19583 0 6.66667V10.6667H8H13.3333H21.3333V6.66667C21.3333 5.19583 20.1375 4 18.6667 4H16V2.33333C16 1.04583 14.9542 0 13.6667 0H7.66667C6.37917 0 5.33333 1.04583 5.33333 2.33333ZM21.3333 12H13.3333V13.3333C13.3333 14.0708 12.7375 14.6667 12 14.6667H9.33333C8.59583 14.6667 8 14.0708 8 13.3333V12H0V17.3333C0 18.8042 1.19583 20 2.66667 20H18.6667C20.1375 20 21.3333 18.8042 21.3333 17.3333V12Z" fill="#444444"/>
</svg>
