<svg width="30" height="31" viewBox="0 0 30 31" fill="none" xmlns="http://www.w3.org/2000/svg">
<path d="M21.2508 13.1254C21.2508 14.9185 20.6687 16.5748 19.6882 17.9186L24.6338 22.8681C25.1221 23.3564 25.1221 24.1494 24.6338 24.6377C24.1455 25.126 23.3525 25.126 22.8642 24.6377L17.9186 19.6882C16.5748 20.6726 14.9185 21.2508 13.1254 21.2508C8.6369 21.2508 5 17.6139 5 13.1254C5 8.6369 8.6369 5 13.1254 5C17.6139 5 21.2508 8.6369 21.2508 13.1254ZM13.1254 18.7507C13.8641 18.7507 14.5956 18.6052 15.2781 18.3225C15.9606 18.0398 16.5807 17.6254 17.1031 17.1031C17.6254 16.5807 18.0398 15.9606 18.3225 15.2781C18.6052 14.5956 18.7507 13.8641 18.7507 13.1254C18.7507 12.3867 18.6052 11.6552 18.3225 10.9727C18.0398 10.2902 17.6254 9.67008 17.1031 9.14773C16.5807 8.62537 15.9606 8.21102 15.2781 7.92832C14.5956 7.64562 13.8641 7.50012 13.1254 7.50012C12.3867 7.50012 11.6552 7.64562 10.9727 7.92832C10.2902 8.21102 9.67008 8.62537 9.14773 9.14773C8.62537 9.67008 8.21102 10.2902 7.92832 10.9727C7.64562 11.6552 7.50012 12.3867 7.50012 13.1254C7.50012 13.8641 7.64562 14.5956 7.92832 15.2781C8.21102 15.9606 8.62537 16.5807 9.14773 17.1031C9.67008 17.6254 10.2902 18.0398 10.9727 18.3225C11.6552 18.6052 12.3867 18.7507 13.1254 18.7507Z" fill="#DDDDDD"/>
</svg>
