<svg width="17" height="22" viewBox="0 0 17 22" fill="none" xmlns="http://www.w3.org/2000/svg">
<path d="M1.375 0C0.614453 0 0 0.614453 0 1.375C0 2.13555 0.614453 2.75 1.375 2.75V3.22266C1.375 5.04453 2.10117 6.79336 3.39023 8.08242L6.30352 11L3.39023 13.9176C2.10117 15.2066 1.375 16.9555 1.375 18.7773V19.25C0.614453 19.25 0 19.8645 0 20.625C0 21.3855 0.614453 22 1.375 22H2.75H13.75H15.125C15.8855 22 16.5 21.3855 16.5 20.625C16.5 19.8645 15.8855 19.25 15.125 19.25V18.7773C15.125 16.9555 14.3988 15.2066 13.1098 13.9176L10.1965 11L13.1141 8.08242C14.4031 6.79336 15.1293 5.04453 15.1293 3.22266V2.75C15.8898 2.75 16.5043 2.13555 16.5043 1.375C16.5043 0.614453 15.8898 0 15.1293 0H13.75H2.75H1.375ZM4.125 3.22266V2.75H12.375V3.22266C12.375 4.03906 12.1344 4.82969 11.6875 5.5H4.8125C4.36992 4.82969 4.125 4.03906 4.125 3.22266ZM4.8125 16.5C4.96289 16.2723 5.13906 16.0574 5.33242 15.8598L8.25 12.9465L11.1676 15.8641C11.3652 16.0617 11.5371 16.2766 11.6875 16.5043H4.8125V16.5Z" fill="#444444"/>
</svg>
