<svg width="17" height="22" viewBox="0 0 17 22" fill="none" xmlns="http://www.w3.org/2000/svg">
<path d="M9.29241 21.5057C11.5024 18.7399 16.5428 12.0366 16.5428 8.27141C16.5428 3.7049 12.8379 0 8.27141 0C3.7049 0 0 3.7049 0 8.27141C0 12.0366 5.04039 18.7399 7.2504 21.5057C7.78029 22.1648 8.76252 22.1648 9.29241 21.5057ZM8.27141 5.51427C9.00264 5.51427 9.70393 5.80475 10.221 6.32182C10.7381 6.83888 11.0285 7.54017 11.0285 8.27141C11.0285 9.00264 10.7381 9.70393 10.221 10.221C9.70393 10.7381 9.00264 11.0285 8.27141 11.0285C7.54017 11.0285 6.83888 10.7381 6.32182 10.221C5.80475 9.70393 5.51427 9.00264 5.51427 8.27141C5.51427 7.54017 5.80475 6.83888 6.32182 6.32182C6.83888 5.80475 7.54017 5.51427 8.27141 5.51427Z" fill="#444444"/>
</svg>
