<svg width="34" height="28" viewBox="0 0 34 28" fill="none" xmlns="http://www.w3.org/2000/svg">
<path d="M30 3.6875C30.5156 3.6875 30.9375 4.10938 30.9375 4.625V23.375C30.9375 23.8906 30.5156 24.3125 30 24.3125H3.75C3.23438 24.3125 2.8125 23.8906 2.8125 23.375V4.625C2.8125 4.10938 3.23438 3.6875 3.75 3.6875H30ZM3.75 0.875C1.68164 0.875 0 2.55664 0 4.625V23.375C0 25.4434 1.68164 27.125 3.75 27.125H30C32.0684 27.125 33.75 25.4434 33.75 23.375V4.625C33.75 2.55664 32.0684 0.875 30 0.875H3.75ZM12.1875 14C13.1821 14 14.1359 13.6049 14.8392 12.9017C15.5424 12.1984 15.9375 11.2446 15.9375 10.25C15.9375 9.25544 15.5424 8.30161 14.8392 7.59835C14.1359 6.89509 13.1821 6.5 12.1875 6.5C11.1929 6.5 10.2391 6.89509 9.53585 7.59835C8.83259 8.30161 8.4375 9.25544 8.4375 10.25C8.4375 11.2446 8.83259 12.1984 9.53585 12.9017C10.2391 13.6049 11.1929 14 12.1875 14ZM10.3125 15.875C7.72266 15.875 5.625 17.9727 5.625 20.5625C5.625 21.0781 6.04688 21.5 6.5625 21.5H17.8125C18.3281 21.5 18.75 21.0781 18.75 20.5625C18.75 17.9727 16.6523 15.875 14.0625 15.875H10.3125ZM22.0312 7.4375C21.252 7.4375 20.625 8.06445 20.625 8.84375C20.625 9.62305 21.252 10.25 22.0312 10.25H26.7188C27.498 10.25 28.125 9.62305 28.125 8.84375C28.125 8.06445 27.498 7.4375 26.7188 7.4375H22.0312ZM22.0312 13.0625C21.252 13.0625 20.625 13.6895 20.625 14.4688C20.625 15.248 21.252 15.875 22.0312 15.875H26.7188C27.498 15.875 28.125 15.248 28.125 14.4688C28.125 13.6895 27.498 13.0625 26.7188 13.0625H22.0312Z" fill="white"/>
</svg>
