<svg width="34" height="28" viewBox="0 0 34 28" fill="none" xmlns="http://www.w3.org/2000/svg">
<path d="M5.625 3.6875C5.625 2.13477 6.88477 0.875 8.4375 0.875H25.3125C26.8652 0.875 28.125 2.13477 28.125 3.6875V21.5H5.625V3.6875ZM23.9648 6.44141C23.4141 5.89062 22.5234 5.89062 21.9785 6.44141L15.4746 12.9453L12.7207 10.1914C12.1699 9.64062 11.2793 9.64062 10.7344 10.1914C10.1895 10.7422 10.1836 11.6328 10.7344 12.1777L14.4844 15.9277C15.0352 16.4785 15.9258 16.4785 16.4707 15.9277L23.9648 8.43359C24.5156 7.88281 24.5156 6.99219 23.9648 6.44727V6.44141ZM0 18.6875C0 17.1348 1.25977 15.875 2.8125 15.875H3.75V23.375H30V15.875H30.9375C32.4902 15.875 33.75 17.1348 33.75 18.6875V24.3125C33.75 25.8652 32.4902 27.125 30.9375 27.125H2.8125C1.25977 27.125 0 25.8652 0 24.3125V18.6875Z" fill="white"/>
</svg>
