<svg width="38" height="24" viewBox="0 0 38 24" fill="none" xmlns="http://www.w3.org/2000/svg">
<path d="M15.9492 0.785156L12.9551 3.7793C12.0586 4.02539 11.2266 4.47656 10.5234 5.09766L8.96484 6.48633C8.36719 7.01953 7.58789 7.3125 6.78516 7.3125H5.625V14.8125C6.82031 14.8477 7.95703 15.334 8.80664 16.1836L10.8926 18.2695L11.3027 18.6797L12.8848 20.2617C13.248 20.625 13.8457 20.625 14.209 20.2617C14.3086 20.1621 14.3848 20.0449 14.4258 19.9219C14.5898 19.4707 14.9707 19.1309 15.4395 19.0254C15.9082 18.9199 16.4004 19.0605 16.7402 19.4062L17.373 20.0273C18.0527 20.707 19.1543 20.707 19.8281 20.0273C20.1445 19.7109 20.3145 19.3066 20.332 18.8906C20.3555 18.375 20.6602 17.918 21.1289 17.6953C21.5977 17.4727 22.1426 17.5195 22.5586 17.8184C23.1094 18.2109 23.877 18.1582 24.3691 17.666C24.9199 17.1152 24.9199 16.2246 24.3691 15.6797L19.9277 11.2383L17.8301 13.1719C16.2305 14.6484 13.7754 14.6719 12.1465 13.2246C10.2891 11.5723 10.248 8.68945 12.0527 6.98437L16.1602 3.10547C17.7656 1.59375 19.8867 0.75 22.0957 0.75C24.2109 0.75 26.2559 1.5293 27.832 2.92969L29.5957 4.5H31.875H34.2188H36.5625C37.0781 4.5 37.5 4.92188 37.5 5.4375V17.625C37.5 18.6621 36.6621 19.5 35.625 19.5H33.75C33.0586 19.5 32.4492 19.125 32.127 18.5625H27.1523C26.9531 18.9551 26.6895 19.3301 26.3613 19.6582C25.3594 20.6602 23.9707 21.0527 22.6699 20.8359C22.459 21.2637 22.1719 21.6621 21.8145 22.0195C20.2148 23.6191 17.7129 23.7773 15.9316 22.4941C14.4609 23.7129 12.2695 23.6367 10.8926 22.2539L9.31641 20.6719L8.90625 20.2617L6.82031 18.1758C6.49805 17.8535 6.07617 17.666 5.625 17.6309C5.625 18.6621 4.78125 19.5 3.75 19.5H1.875C0.837891 19.5 0 18.6621 0 17.625V5.4375C0 4.92188 0.421875 4.5 0.9375 4.5H3.28125H5.625H6.78516C6.90234 4.5 7.01367 4.45898 7.0957 4.38281L8.64844 3C10.2832 1.55273 12.3867 0.75 14.5723 0.75H15.1758C15.4336 0.75 15.6973 0.761719 15.9492 0.785156ZM31.875 15.75V7.3125H29.0625C28.7168 7.3125 28.3828 7.18359 28.1309 6.95508L25.9688 5.0332C24.9023 4.08398 23.5254 3.5625 22.0957 3.5625C20.6074 3.5625 19.1777 4.13086 18.0938 5.15039L13.9863 9.0293C13.3828 9.60352 13.3945 10.5703 14.0156 11.1211C14.5605 11.6074 15.3867 11.5957 15.9199 11.1035L20.1328 7.21289C20.7012 6.68555 21.5918 6.7207 22.1191 7.29492C22.6465 7.86914 22.6113 8.75391 22.0371 9.28125L21.9902 9.32812L26.3496 13.6875C26.9355 14.2734 27.3164 14.9941 27.4863 15.7441H31.875V15.75ZM3.75 16.6875C3.75 16.4389 3.65123 16.2004 3.47541 16.0246C3.2996 15.8488 3.06114 15.75 2.8125 15.75C2.56386 15.75 2.3254 15.8488 2.14959 16.0246C1.97377 16.2004 1.875 16.4389 1.875 16.6875C1.875 16.9361 1.97377 17.1746 2.14959 17.3504C2.3254 17.5262 2.56386 17.625 2.8125 17.625C3.06114 17.625 3.2996 17.5262 3.47541 17.3504C3.65123 17.1746 3.75 16.9361 3.75 16.6875ZM34.6875 17.625C34.9361 17.625 35.1746 17.5262 35.3504 17.3504C35.5262 17.1746 35.625 16.9361 35.625 16.6875C35.625 16.4389 35.5262 16.2004 35.3504 16.0246C35.1746 15.8488 34.9361 15.75 34.6875 15.75C34.4389 15.75 34.2004 15.8488 34.0246 16.0246C33.8488 16.2004 33.75 16.4389 33.75 16.6875C33.75 16.9361 33.8488 17.1746 34.0246 17.3504C34.2004 17.5262 34.4389 17.625 34.6875 17.625Z" fill="white"/>
</svg>
