<svg width="38" height="30" viewBox="0 0 38 30" fill="none" xmlns="http://www.w3.org/2000/svg">
<path d="M5.16791 18.1113C5.74213 17.0391 5.56635 15.7207 4.72846 14.8418C3.48041 13.5293 2.81245 11.9531 2.81245 10.3125C2.81245 6.5918 6.55073 2.8125 12.1874 2.8125C17.8242 2.8125 21.5624 6.5918 21.5624 10.3125C21.5624 14.0332 17.8242 17.8125 12.1874 17.8125C11.4199 17.8125 10.6757 17.7363 9.9726 17.6016C9.36323 17.4844 8.73042 17.5664 8.17377 17.8477C7.93354 17.9707 7.68745 18.0879 7.43549 18.1992C6.49799 18.6211 5.50776 18.9902 4.51166 19.2539C4.67573 18.9844 4.82807 18.7207 4.97456 18.457C5.03901 18.3457 5.10346 18.2285 5.16206 18.1113H5.16791ZM-5.44153e-05 10.3125C-5.44153e-05 12.7617 1.00776 15.0059 2.6894 16.7754C2.63666 16.875 2.57807 16.9805 2.52534 17.0742C1.92182 18.1523 1.2187 19.2129 0.380805 20.127C-0.00591379 20.5371 -0.105523 21.1348 0.111274 21.6445C0.339789 22.166 0.843696 22.5 1.4062 22.5C3.92573 22.5 6.47456 21.7207 8.59565 20.7598C8.8769 20.6309 9.15815 20.4961 9.42768 20.3613C10.3124 20.5371 11.2382 20.625 12.1874 20.625C18.9199 20.625 24.3749 16.0078 24.3749 10.3125C24.3749 4.61719 18.9199 0 12.1874 0C5.45502 0 -5.44153e-05 4.61719 -5.44153e-05 10.3125ZM25.3124 28.125C26.2617 28.125 27.1816 28.0312 28.0722 27.8613C28.3417 27.9961 28.623 28.1309 28.9042 28.2598C31.0253 29.2207 33.5742 30 36.0937 30C36.6562 30 37.1601 29.666 37.3828 29.1504C37.6054 28.6348 37.4999 28.0371 37.1132 27.6328C36.2812 26.7188 35.5781 25.6582 34.9687 24.5801C34.916 24.4805 34.8574 24.3809 34.8046 24.2812C36.4921 22.5059 37.4999 20.2617 37.4999 17.8125C37.4999 12.2812 32.3496 7.76367 25.8867 7.51172C26.1269 8.40234 26.2499 9.33984 26.2499 10.3125V10.3477C31.3593 10.7402 34.6874 14.3027 34.6874 17.8125C34.6874 19.4531 34.0195 21.0293 32.7714 22.3359C31.9335 23.2148 31.7578 24.5391 32.332 25.6055C32.3964 25.7227 32.4609 25.8398 32.5195 25.9512C32.666 26.2148 32.8242 26.4785 32.9824 26.748C31.9863 26.4844 30.996 26.1211 30.0585 25.6934C29.8066 25.582 29.5605 25.4648 29.3203 25.3418C28.7636 25.0605 28.1308 24.9785 27.5214 25.0957C26.8124 25.2363 26.0742 25.3066 25.3066 25.3066C21.6914 25.3066 18.8613 23.7539 17.291 21.6562C16.3535 21.9727 15.3691 22.207 14.3613 22.3477C16.3476 25.7695 20.5078 28.125 25.3124 28.125Z" fill="white"/>
</svg>
