<svg width="21" height="16" viewBox="0 0 21 16" fill="none" xmlns="http://www.w3.org/2000/svg">
  <path
    d="M9.73559 4.15082L3.33385 9.57464V15.4285C3.33385 15.5801 3.39239 15.7254 3.49657 15.8326C3.60076 15.9398 3.74207 16 3.88941 16L7.78038 15.9896C7.92724 15.9889 8.06784 15.9283 8.17142 15.8212C8.27501 15.7142 8.33316 15.5692 8.33316 15.4181V11.9996C8.33316 11.848 8.39169 11.7026 8.49588 11.5954C8.60006 11.4883 8.74137 11.4281 8.88871 11.4281H11.1109C11.2583 11.4281 11.3996 11.4883 11.5038 11.5954C11.608 11.7026 11.6665 11.848 11.6665 11.9996V15.4156C11.6663 15.4908 11.6805 15.5654 11.7083 15.6349C11.7361 15.7044 11.777 15.7677 11.8286 15.8209C11.8802 15.8742 11.9415 15.9164 12.009 15.9453C12.0766 15.9741 12.1489 15.9889 12.222 15.9889L16.1116 16C16.259 16 16.4003 15.9398 16.5045 15.8326C16.6087 15.7254 16.6672 15.5801 16.6672 15.4285V9.57071L10.2668 4.15082C10.1916 4.08843 10.0979 4.05441 10.0012 4.05441C9.90457 4.05441 9.81083 4.08843 9.73559 4.15082ZM19.8477 7.8373L16.945 5.37596V0.428619C16.945 0.314942 16.9011 0.205921 16.8229 0.12554C16.7448 0.0451581 16.6388 0 16.5283 0H14.5839C14.4733 0 14.3674 0.0451581 14.2892 0.12554C14.2111 0.205921 14.1672 0.314942 14.1672 0.428619V3.02212L11.0585 0.391115C10.7602 0.138579 10.3858 0.000504822 9.99948 0.000504822C9.61313 0.000504822 9.23878 0.138579 8.94045 0.391115L0.151215 7.8373C0.109023 7.87318 0.0741159 7.91725 0.0484882 7.967C0.0228604 8.01676 0.00701415 8.07122 0.00185491 8.12728C-0.00330432 8.18334 0.00232453 8.23989 0.0184199 8.29371C0.0345152 8.34753 0.0607616 8.39756 0.0956593 8.44094L0.981076 9.54821C1.01588 9.59174 1.05869 9.62778 1.10705 9.65428C1.15541 9.68077 1.20837 9.69719 1.26291 9.7026C1.31745 9.708 1.37249 9.70229 1.42488 9.68579C1.47727 9.66929 1.52598 9.64232 1.56823 9.60643L9.73559 2.68637C9.81083 2.62398 9.90457 2.58996 10.0012 2.58996C10.0979 2.58996 10.1916 2.62398 10.2668 2.68637L18.4345 9.60643C18.4767 9.64233 18.5254 9.66933 18.5777 9.68588C18.63 9.70244 18.685 9.70823 18.7395 9.70292C18.794 9.69762 18.8469 9.68132 18.8953 9.65495C18.9436 9.62859 18.9865 9.59268 19.0214 9.54928L19.9068 8.44201C19.9416 8.39838 19.9678 8.34809 19.9837 8.29404C19.9996 8.23998 20.0049 8.18323 19.9995 8.12704C19.994 8.07084 19.9777 8.01632 19.9517 7.96659C19.9257 7.91687 19.8903 7.87293 19.8477 7.8373Z"
    fill="#0088CC" />
  <path
    d="M9.73559 4.15082L3.33385 9.57464V15.4285C3.33385 15.5801 3.39239 15.7254 3.49657 15.8326C3.60076 15.9398 3.74207 16 3.88941 16L7.78038 15.9896C7.92724 15.9889 8.06784 15.9283 8.17142 15.8212C8.27501 15.7142 8.33316 15.5692 8.33316 15.4181V11.9996C8.33316 11.848 8.39169 11.7026 8.49588 11.5954C8.60006 11.4883 8.74137 11.4281 8.88871 11.4281H11.1109C11.2583 11.4281 11.3996 11.4883 11.5038 11.5954C11.608 11.7026 11.6665 11.848 11.6665 11.9996V15.4156C11.6663 15.4908 11.6805 15.5654 11.7083 15.6349C11.7361 15.7044 11.777 15.7677 11.8286 15.8209C11.8802 15.8742 11.9415 15.9164 12.009 15.9453C12.0766 15.9741 12.1489 15.9889 12.222 15.9889L16.1116 16C16.259 16 16.4003 15.9398 16.5045 15.8326C16.6087 15.7254 16.6672 15.5801 16.6672 15.4285V9.57071L10.2668 4.15082C10.1916 4.08843 10.0979 4.05441 10.0012 4.05441C9.90457 4.05441 9.81083 4.08843 9.73559 4.15082ZM19.8477 7.8373L16.945 5.37596V0.428619C16.945 0.314942 16.9011 0.205921 16.8229 0.12554C16.7448 0.0451581 16.6388 0 16.5283 0H14.5839C14.4733 0 14.3674 0.0451581 14.2892 0.12554C14.2111 0.205921 14.1672 0.314942 14.1672 0.428619V3.02212L11.0585 0.391115C10.7602 0.138579 10.3858 0.000504822 9.99948 0.000504822C9.61313 0.000504822 9.23878 0.138579 8.94045 0.391115L0.151215 7.8373C0.109023 7.87318 0.0741159 7.91725 0.0484882 7.967C0.0228604 8.01676 0.00701415 8.07122 0.00185491 8.12728C-0.00330432 8.18334 0.00232453 8.23989 0.0184199 8.29371C0.0345152 8.34753 0.0607616 8.39756 0.0956593 8.44094L0.981076 9.54821C1.01588 9.59174 1.05869 9.62778 1.10705 9.65428C1.15541 9.68077 1.20837 9.69719 1.26291 9.7026C1.31745 9.708 1.37249 9.70229 1.42488 9.68579C1.47727 9.66929 1.52598 9.64232 1.56823 9.60643L9.73559 2.68637C9.81083 2.62398 9.90457 2.58996 10.0012 2.58996C10.0979 2.58996 10.1916 2.62398 10.2668 2.68637L18.4345 9.60643C18.4767 9.64233 18.5254 9.66933 18.5777 9.68588C18.63 9.70244 18.685 9.70823 18.7395 9.70292C18.794 9.69762 18.8469 9.68132 18.8953 9.65495C18.9436 9.62859 18.9865 9.59268 19.0214 9.54928L19.9068 8.44201C19.9416 8.39838 19.9678 8.34809 19.9837 8.29404C19.9996 8.23998 20.0049 8.18323 19.9995 8.12704C19.994 8.07084 19.9777 8.01632 19.9517 7.96659C19.9257 7.91687 19.8903 7.87293 19.8477 7.8373Z"
    fill="black" fill-opacity="0.2" />
</svg>