<svg width="7" height="11" viewBox="0 0 7 11" fill="none" xmlns="http://www.w3.org/2000/svg">
  <path
    d="M5.98045 4.54586C6.28281 4.82324 6.28281 5.2737 5.98045 5.55108L1.3362 9.81161C1.03384 10.089 0.542802 10.089 0.240442 9.81161C-0.0619182 9.53423 -0.0619182 9.08377 0.240442 8.80639L4.33803 5.04736L0.242861 1.28833C-0.0594993 1.01095 -0.0594993 0.560485 0.242861 0.283107C0.545221 0.00572866 1.03625 0.00572866 1.33861 0.283107L5.98287 4.54364L5.98045 4.54586Z"
    fill="#0088CC" />
  <path
    d="M5.98045 4.54586C6.28281 4.82324 6.28281 5.2737 5.98045 5.55108L1.3362 9.81161C1.03384 10.089 0.542802 10.089 0.240442 9.81161C-0.0619182 9.53423 -0.0619182 9.08377 0.240442 8.80639L4.33803 5.04736L0.242861 1.28833C-0.0594993 1.01095 -0.0594993 0.560485 0.242861 0.283107C0.545221 0.00572866 1.03625 0.00572866 1.33861 0.283107L5.98287 4.54364L5.98045 4.54586Z"
    fill="black" fill-opacity="0.2" />
</svg>